# ProBuilder 4.0.5
# https://unity3d.com/unity/features/worldbuilding/probuilder
# 1/14/2020 9:05:11 AM

mtllib ./Cube-Merged.mtl
o Cube-Merged

g Cube-Merged
v -35.8125 3.6875 5.0625
v -35.8125 4.1875 5.0625
v -26.03124 3.687499 5.0625
v -26.03124 4.187499 5.0625
v -35.8125 4.1875 4.5625
v -26.03124 4.187499 4.5625
v -35.8125 3.6875 4.5625
v -26.03124 3.687499 4.5625
v -35.8125 3.6875 -4.4375
v -35.8125 4.1875 -4.4375
v -26.03124 3.687499 -4.4375
v -26.03124 4.187499 -4.4375
v -35.8125 4.1875 -4.9375
v -26.03124 4.187499 -4.9375
v -35.8125 3.6875 -4.9375
v -26.03124 3.687499 -4.9375
v -25.5 3.7462 -4.5625
v -36.30073 3.7462 -4.5625
v -30.90037 8.53125 -4.5625
v -36.30073 3.7462 -4.530734
v -30.90037 8.53125 -4.530734
v -25.5 3.7462 -4.530734
v -24.259 2.697 4.96875
v -24.60633 2.33733 4.96875
v -30.55322 8.775261 4.96875
v -30.90055 8.415592 4.96875
v -24.60633 2.33733 4.46875
v -30.90055 8.415592 4.46875
v -24.259 2.697 4.46875
v -30.55322 8.775261 4.46875
v -36.28125 3.7462 4.65625
v -25.48052 3.7462 4.65625
v -30.88088 8.53125 4.65625
v -25.48052 3.7462 4.624484
v -30.88088 8.53125 4.624484
v -36.28125 3.7462 4.624484
v -37.15625 2.34375 -4.375
v -37.50358 2.70342 -4.375
v -30.82634 8.456478 -4.375
v -31.17366 8.816149 -4.375
v -37.50358 2.70342 -4.875
v -31.17366 8.816149 -4.875
v -37.15625 2.34375 -4.875
v -30.82634 8.456478 -4.875
v -36.88999 3.156001 4.5
v -36.99854 3.268398 4.5
v -31.03948 8.805779 4.5
v -31.14802 8.918177 4.5
v -36.99854 3.268399 -4.4375
v -31.14802 8.918178 -4.4375
v -36.88999 3.156002 -4.4375
v -31.03948 8.80578 -4.4375
v -25.5 3.7462 -4.825
v -36.30073 3.7462 -4.825
v -30.90037 8.53125 -4.825
v -36.30073 3.7462 -4.793234
v -30.90037 8.53125 -4.793234
v -25.5 3.7462 -4.793234
v -24.76625 3.249755 4.5
v -24.87479 3.137358 4.5
v -30.60198 8.885249 4.5
v -30.71052 8.772852 4.5
v -24.87479 3.137357 -4.4375
v -30.71052 8.772851 -4.4375
v -24.76625 3.249754 -4.4375
v -30.60198 8.885248 -4.4375
v -37.15625 2.34375 4.96875
v -37.50358 2.70342 4.96875
v -30.79509 8.486656 4.96875
v -31.14241 8.846327 4.96875
v -37.50358 2.70342 4.46875
v -31.14241 8.846327 4.46875
v -37.15625 2.34375 4.46875
v -30.79509 8.486656 4.46875
v -24.259 2.697 -4.375
v -24.60633 2.33733 -4.375
v -30.55322 8.775261 -4.375
v -30.90055 8.415592 -4.375
v -24.60633 2.33733 -4.875
v -30.90055 8.415592 -4.875
v -24.259 2.697 -4.875
v -30.55322 8.775261 -4.875
v -30.625 3.77198 0.28125
v -31.125 3.77198 0.28125
v -30.625 8.579324 0.28125
v -31.125 8.579324 0.28125
v -31.125 3.77198 -0.21875
v -31.125 8.579324 -0.21875
v -30.625 3.77198 -0.21875
v -30.625 8.579324 -0.21875
v -36.73374 2.999751 4.5
v -36.84229 3.112148 4.5
v -30.97698 8.558998 4.5
v -31.08552 8.671394 4.5
v -36.84229 3.112149 -4.4375
v -31.08552 8.671396 -4.4375
v -36.73374 2.999752 -4.4375
v -30.97698 8.558998 -4.4375
v -31.17623 8.785298 -4.9375
v -31.17623 8.785297 5.000005
v -31.10358 8.609891 -4.9375
v -31.10358 8.60989 5.000005
v -31.06511 8.571424 -4.9375
v -31.06511 8.571423 5.000005
v -30.8897 8.498767 -4.9375
v -30.8897 8.498765 5.000005
v -30.8353 8.498767 -4.9375
v -30.8353 8.498765 5.000005
v -30.65989 8.571424 -4.9375
v -30.65989 8.571423 5.000005
v -30.62142 8.609891 -4.9375
v -30.62142 8.60989 5.000005
v -30.54877 8.785298 -4.9375
v -30.54877 8.785297 5.000005
v -30.54877 8.839702 -4.9375
v -30.54877 8.839701 5.000005
v -30.62142 9.015108 -4.9375
v -30.62142 9.015108 5.000005
v -30.65989 9.053577 -4.9375
v -30.65989 9.053576 5.000005
v -30.8353 9.126232 -4.9375
v -30.8353 9.126231 5.000005
v -30.8897 9.126232 -4.9375
v -30.8897 9.126231 5.000005
v -31.06511 9.053577 -4.9375
v -31.06511 9.053576 5.000005
v -31.10358 9.015108 -4.9375
v -31.10358 9.015108 5.000005
v -31.17623 8.839702 -4.9375
v -31.17623 8.8397 5.000005
v -30.8625 8.812499 5.000005
v -30.56694 8.812499 5.000005
v -30.65351 8.603508 5.000005
v -30.65351 9.02149 5.000005
v -30.8625 8.8125 -4.9375
v -30.65351 8.603509 -4.9375
v -30.56694 8.8125 -4.9375
v -30.65351 9.021492 -4.9375
v -30.8625 8.51694 5.000005
v -30.8625 8.516942 -4.9375
v -30.8625 9.108056 5.000005
v -30.8625 9.108057 -4.9375
v -31.07149 9.021491 5.000005
v -31.07149 9.021492 -4.9375
v -31.07149 8.603508 5.000005
v -31.07149 8.603509 -4.9375
v -31.15806 8.812499 5.000005
v -31.15806 8.8125 -4.9375
v -24.9225 3.093505 4.5
v -25.03104 2.981108 4.5
v -30.69573 8.668644 4.5
v -30.80427 8.556246 4.5
v -25.03104 2.981107 -4.4375
v -30.80427 8.556246 -4.4375
v -24.9225 3.093504 -4.4375
v -30.69573 8.668644 -4.4375
v -25.5 3.7462 4.84375
v -36.30073 3.7462 4.84375
v -30.90037 8.53125 4.84375
v -36.30073 3.7462 4.875516
v -30.90037 8.53125 4.875516
v -25.5 3.7462 4.875516
v -35.8125 3.6875 0.3037291
v -35.8125 4.187501 0.3037291
v -26.03124 3.687499 0.3037291
v -26.03124 4.187499 0.3037291
v -35.8125 4.187501 -0.229043
v -26.03124 4.187499 -0.229043
v -35.8125 3.6875 -0.229043
v -26.03124 3.687499 -0.229043
v -28.5 3.703125 -4.83
v -28.5 4.1875 -4.83
v -28.5 3.703125 4.951254
v -28.5 4.1875 4.951253
v -28 4.1875 -4.83
v -28 4.1875 4.951253
v -28 3.703125 -4.83
v -28 3.703125 4.951254
v -34 3.703125 -4.83
v -34 4.1875 -4.83
v -34 3.703125 4.951254
v -34 4.1875 4.951253
v -33.5 4.1875 -4.83
v -33.5 4.1875 4.951253
v -33.5 3.703125 -4.83
v -33.5 3.703125 4.951254

vt -1.66893E-06 0
vt -0.9999998 0
vt 2.384186E-07 1.117857
vt -0.9999979 1.117857
vt -1 0
vt -1 1.117857
vt 0.9999998 0
vt 0.9999981 1.117857
vt 1 0
vt 1 1.117857
vt 0 -1
vt 1 -1
vt -1 -1
vt 0.9999994 -1
vt -0.1426175 0.1609571
vt 0.7134984 -0.1900151
vt 0.7145596 1.032209
vt 0.4331404 -0.936475
vt 1.561846 0.05016296
vt -0.5618448 0.2017802
vt 0.566861 1.188418
vt -1.142617 0.1609588
vt -0.2865016 -0.1900134
vt -0.2854404 1.03221
vt -0.5668557 -0.4955096
vt 0.5618449 0.4911292
vt -1.561846 0.6427455
vt -0.4331458 1.629384
vt 0 1
vt -1 1
vt -0.4606247 -0.4448198
vt -0.5688176 -0.4465022
vt -0.4311819 1.446502
vt -0.5393748 1.44482
vt 0.5688176 -0.4465022
vt 0.4606247 -0.4448198
vt 0.5393748 1.44482
vt 0.4311819 1.446502
vt 1 1
vt -0.4313095 -0.4466344
vt -0.5392302 -0.4449604
vt -0.4607698 1.450631
vt -0.5686908 1.452305
vt 0 1.005671
vt -1 1.005671
vt 0.5392302 -0.4449604
vt 0.4313095 -0.4466344
vt 0.5686908 1.452305
vt 0.4607698 1.450631
vt 1 1.005671
vt -4.172325E-07 -0.9999999
vt -0.9999999 -1
vt -0.3997191 -7.342159
vt -0.5719017 -7.341615
vt -0.4280745 1.618347
vt -0.6002567 1.618892
vt 7.937499 -6.928219
vt -1.000001 -6.92822
vt 7.937499 1.204953
vt -1.000001 1.204953
vt 0.5719103 -7.341615
vt 0.399728 -7.34216
vt 0.6002629 1.618893
vt 0.4280805 1.618347
vt 1 -6.928221
vt -7.9375 -6.928221
vt 1 1.204952
vt -7.9375 1.204952
vt -8.583069E-06 7.9375
vt 0.9999928 7.9375
vt -0.9999847 7.9375
vt -0.4280462 -7.341596
vt -0.6002688 -7.342141
vt -0.3997035 1.598312
vt -0.5719266 1.597766
vt 7.937499 1.184393
vt -1.000001 1.184392
vt 0.6002731 -7.34214
vt 0.4280515 -7.341595
vt 0.5719352 1.597766
vt 0.3997126 1.598312
vt 1 1.184391
vt -7.9375 1.184391
vt -0.5391046 -0.445082
vt -0.4608962 1.455717
vt -0.5685809 1.457384
vt 0 1.010636
vt -1 1.010636
vt 0.5391046 -0.445082
vt 0.5685809 1.457384
vt 0.4608962 1.455717
vt 1 1.010635
vt 2.384186E-07 0.01588345
vt -0.9999998 0.01588345
vt 7.152557E-07 0.5652943
vt -0.9999993 0.5652943
vt -1 0.01588225
vt -1 0.5652931
vt 0.9999998 0.01588345
vt 0.9999993 0.5652943
vt 1 0.01588345
vt 1 0.5652943
vt -0.5720379 -7.341483
vt -0.4279508 1.487889
vt -0.6003872 1.488442
vt 7.937499 1.074627
vt -1.000001 1.074628
vt 0.5720462 -7.341484
vt 0.6003937 1.488441
vt 0.4279556 1.487887
vt 1 1.074625
vt -7.9375 1.074625
vt 1.000004 7.9375
vt 1.000013 -0.9999999
vt 0.0452961 0
vt 0.0452961 1
vt 0.3373873 0
vt 0.3373873 1
vt 0.3158942 0
vt 0.3158942 1
vt 0.6079854 0
vt 0.6079854 1
vt -0.3373873 0
vt -0.3373873 1
vt -0.04529615 0
vt -0.04529615 1
vt -0.6079854 0
vt -0.6079854 1
vt -0.3158941 0
vt -0.3158941 1
vt -0.04184771 15.38462
vt -0.04184914 0.09615326
vt 0.04185009 15.38462
vt 0.04184866 0.09615326
vt 0.3117137 15.38462
vt 0.3117156 0.09615326
vt 0.3954077 15.38462
vt 0.3954091 0.09615326
vt -0.3953999 15.38462
vt -0.3953999 0.09615326
vt -0.3117046 15.38462
vt -0.3117036 0.09615326
vt -0.5418484 15.38462
vt -0.5418484 0.09615421
vt -0.4581521 15.38462
vt -0.4581521 0.09615421
vt 0.4581521 15.38462
vt 0.4581492 0.09615326
vt 0.541851 15.38462
vt 0.5418482 0.09615326
vt -0.4999995 -4.768372E-07
vt -0.9547031 -4.768372E-07
vt -0.9826653 0.04184818
vt -0.870887 0.3117056
vt -0.8215241 0.3215241
vt -0.8215241 -0.3215241
vt -0.870887 -0.3117056
vt -0.9826653 -0.04184914
vt 0.5000002 -4.768372E-07
vt 0.8215246 0.3215241
vt 0.8708875 0.3117056
vt 0.9826663 0.04184818
vt 0.9547038 -4.768372E-07
vt 0.9826663 -0.04184914
vt 0.8708875 -0.3117037
vt 0.8215246 -0.3215251
vt -0.5 -4.768372E-07
vt -0.8117051 0.3708863
vt -0.5418482 0.4826674
vt -0.5 0.4547057
vt 0.5000002 0.4547043
vt 0.5418482 0.482666
vt 0.8117051 0.3708868
vt -0.5 -0.4547029
vt -0.5418482 -0.4826641
vt -0.8117051 -0.3708882
vt 0.8117051 -0.3708882
vt 0.5418482 -0.4826651
vt 0.5000002 -0.4547033
vt -0.1784759 -0.3215261
vt -0.1882951 -0.3708882
vt -0.4581521 -0.4826641
vt 0.4999998 0
vt 0.4999998 -0.4547033
vt 0.4581516 -0.4826651
vt 0.1882949 -0.3708882
vt 0.1784756 -0.3215261
vt -0.4581521 0.4826674
vt -0.1882946 0.3708863
vt -0.1784759 0.3215241
vt 0.1784756 0.3215246
vt 0.1882944 0.3708868
vt 0.4581516 0.482666
vt 0.4999998 0.4547043
vt -0.1291125 0.3117056
vt -0.01733398 0.04184818
vt 0.01733375 0.04184818
vt 0.1291122 0.3117056
vt 0.1291122 -0.3117037
vt 0.01733375 -0.04184914
vt -0.01733422 -0.04184723
vt -0.1291125 -0.3117051
vt -0.4279561 -7.341508
vt -0.3996296 1.511346
vt -0.5720224 1.510794
vt 7.937499 1.097508
vt -1.000001 1.097508
vt 0.4279618 -7.341508
vt 0.5720305 1.510794
vt 0.3996377 1.511347
vt 1 1.097507
vt -7.9375 1.097507
vt 0.9999962 -0.9999995
vt 0.04495788 -1.430511E-06
vt -1.020586 -1.430511E-06
vt 0.04495788 1.117857
vt -1.020586 1.117857
vt 1.020586 0
vt -0.04495788 0
vt 1.020586 1.117858
vt -0.04495788 1.117858
vt 0 0.04495788
vt 1 0.04495788
vt 0 -1.020586
vt 1 -1.020586
vt -1.000001 -1.020586
vt -1.000001 0.04495788
vt -0.03125 2.980232E-07
vt -0.03125 1.117857
vt 0.03124952 2.980232E-07
vt 0.03124952 1.117857
vt 0.03124905 -1
vt -0.03125 -1

vn 0 0 1
vn 9.750018E-08 1 0
vn 0 0 -1
vn -9.750018E-08 -1 0
vn 1 0 0
vn -1 0 0
vn -0.6631805 0.7484595 0
vn 0.6631805 0.7484596 0
vn -0.6946585 -0.7193397 0
vn 0.6946584 0.7193398 0
vn -0.7193387 0.6946595 0
vn 0.7193398 -0.6946583 0
vn -0.6946585 0.7193397 0
vn 0.6946584 -0.7193398 0
vn 0.7193401 0.6946581 0
vn -0.7193398 -0.6946583 0
vn -0.9238799 -0.3826825 -3.672496E-08
vn -0.3826862 -0.9238784 -8.866201E-08
vn 0.3826862 -0.9238784 -1.77324E-07
vn 0.9238795 -0.3826835 -3.672506E-08
vn 0.9238787 0.3826853 5.889074E-08
vn 0.3826776 0.9238819 8.866235E-08
vn -0.382678 0.9238818 8.866233E-08
vn -0.9238792 0.3826843 0
vn 0.707098 -0.7071155 -6.785989E-08
vn 0.7071068 0.7071068 0
vn -0.707098 -0.7071155 -6.785989E-08
vn -0.7071046 0.707109 6.785925E-08

g Cube-Merged_0
usemtl LogI_texture
f 3/3/1 4/4/1 2/2/1 1/1/1
f 4/3/2 6/6/2 5/5/2 2/1/2
f 6/8/3 8/3/3 7/1/3 5/7/3
f 8/10/4 3/3/4 1/1/4 7/9/4
f 8/11/5 6/12/5 4/9/5 3/1/5
f 1/1/6 2/5/6 5/13/6 7/11/6
f 11/3/1 12/4/1 10/2/1 9/1/1
f 12/3/2 14/6/2 13/5/2 10/1/2
f 14/8/3 16/3/3 15/1/3 13/7/3
f 16/10/4 11/3/4 9/1/4 15/9/4
f 16/11/5 14/14/5 12/7/5 11/1/5
f 9/1/6 10/5/6 13/13/6 15/11/6
f 25/33/1 26/34/1 24/32/1 23/31/1
f 26/29/9 28/30/9 27/5/9 24/1/9
f 28/37/3 30/38/3 29/36/3 27/35/3
f 30/39/10 25/29/10 23/1/10 29/9/10
f 30/11/11 28/12/11 26/9/11 25/1/11
f 23/1/12 24/5/12 27/13/12 29/11/12
f 39/42/1 40/43/1 38/41/1 37/40/1
f 40/44/13 42/45/13 41/5/13 38/1/13
f 42/48/3 44/49/3 43/47/3 41/46/3
f 44/50/14 39/44/14 37/1/14 43/9/14
f 44/51/15 42/12/15 40/9/15 39/1/15
f 37/1/16 38/2/16 41/52/16 43/11/16
f 69/85/1 70/86/1 68/84/1 67/40/1
f 70/87/13 72/88/13 71/5/13 68/1/13
f 72/90/3 74/91/3 73/47/3 71/89/3
f 74/92/14 69/87/14 67/1/14 73/9/14
f 74/11/15 72/12/15 70/9/15 69/1/15
f 67/1/16 68/5/16 71/13/16 73/11/16
f 77/33/1 78/34/1 76/32/1 75/31/1
f 78/29/9 80/30/9 79/5/9 76/1/9
f 80/37/3 82/38/3 81/36/3 79/35/3
f 82/39/10 77/29/10 75/1/10 81/9/10
f 82/11/11 80/12/11 78/9/11 77/1/11
f 75/1/12 76/5/12 79/13/12 81/11/12
f 85/95/1 86/96/1 84/94/1 83/93/1
f 86/95/6 88/98/6 87/97/6 84/93/6
f 88/100/3 90/95/3 89/93/3 87/99/3
f 90/102/5 85/95/5 83/93/5 89/101/5
f 90/11/2 88/14/2 86/7/2 85/1/2
f 83/1/4 84/5/4 87/13/4 89/11/4
f 165/3/1 166/4/1 164/5/1 163/1/1
f 166/216/2 168/217/2 167/215/2 164/214/2
f 168/8/3 170/3/3 169/1/3 167/9/3
f 170/220/4 165/221/4 163/219/4 169/218/4
f 170/224/5 168/225/5 166/223/5 165/222/5
f 163/222/6 164/227/6 167/226/6 169/224/6
f 173/229/6 174/6/6 172/5/6 171/228/6
f 174/3/2 176/6/2 175/5/2 172/1/2
f 176/10/5 178/231/5 177/230/5 175/9/5
f 178/10/4 173/3/4 171/1/4 177/9/4
f 178/232/1 176/14/1 174/7/1 173/230/1
f 171/228/3 172/5/3 175/13/3 177/233/3
f 181/229/6 182/6/6 180/5/6 179/228/6
f 182/3/2 184/6/2 183/5/2 180/1/2
f 184/10/5 186/231/5 185/230/5 183/9/5
f 186/10/4 181/3/4 179/1/4 185/9/4
f 186/232/1 184/14/1 182/7/1 181/230/1
f 179/228/3 180/5/3 183/13/3 185/233/3

g Cube-Merged_1
usemtl wall_01_cast_ALBEDO
f 17/15/3 18/16/3 19/17/3
f 20/22/1 22/23/1 21/24/1
f 31/15/1 32/16/1 33/17/1
f 34/22/3 36/23/3 35/24/3
f 19/20/7 18/18/7 20/19/7
f 20/19/7 21/21/7 19/20/7
f 21/27/8 22/25/8 17/26/8
f 17/26/8 19/28/8 21/27/8
f 20/30/4 18/5/4 17/1/4
f 17/1/4 22/29/4 20/30/4
f 33/20/8 32/18/8 34/19/8
f 34/19/8 35/21/8 33/20/8
f 35/27/7 36/25/7 31/26/7
f 31/26/7 33/28/7 35/27/7
f 34/30/4 32/5/4 31/1/4
f 31/1/4 36/29/4 34/30/4

g Cube-Merged_2
usemtl Home_roof_Texture
f 47/55/1 48/56/1 46/54/1 45/53/1
f 48/59/13 50/60/13 49/58/13 46/57/13
f 50/63/3 52/64/3 51/62/3 49/61/3
f 52/67/14 47/68/14 45/66/14 51/65/14
f 52/11/15 50/12/15 48/70/15 47/69/15
f 45/69/16 46/71/16 49/52/16 51/11/16

g Cube-Merged_3
usemtl Home_fire_Texture_1
f 53/15/3 54/16/3 55/17/3
f 56/22/1 58/23/1 57/24/1
f 157/15/3 158/16/3 159/17/3
f 160/22/1 162/23/1 161/24/1
f 55/20/7 54/18/7 56/19/7
f 56/19/7 57/21/7 55/20/7
f 57/27/8 58/25/8 53/26/8
f 53/26/8 55/28/8 57/27/8
f 56/30/4 54/5/4 53/1/4
f 53/1/4 58/29/4 56/30/4
f 159/20/7 158/18/7 160/19/7
f 160/19/7 161/21/7 159/20/7
f 161/27/8 162/25/8 157/26/8
f 157/26/8 159/28/8 161/27/8
f 160/30/4 158/5/4 157/1/4
f 157/1/4 162/29/4 160/30/4

g Cube-Merged_4
usemtl Home_roof_Texture2
f 61/74/1 62/75/1 60/73/1 59/72/1
f 62/76/9 64/77/9 63/58/9 60/57/9
f 64/80/3 66/81/3 65/79/3 63/78/3
f 66/82/10 61/83/10 59/66/10 65/65/10
f 66/11/11 64/14/11 62/70/11 61/69/11
f 59/69/12 60/71/12 63/52/12 65/11/12

g Cube-Merged_5
usemtl floor_02_ALBEDO
f 93/104/1 94/105/1 92/103/1 91/53/1
f 94/106/13 96/107/13 95/58/13 92/57/13
f 96/109/3 98/110/3 97/62/3 95/108/3
f 98/111/14 93/112/14 91/66/14 97/65/14
f 98/51/15 96/114/15 94/113/15 93/69/15
f 91/69/16 92/71/16 95/52/16 97/11/16
f 151/204/1 152/205/1 150/73/1 149/203/1
f 152/206/9 154/207/9 153/58/9 150/57/9
f 154/209/3 156/210/3 155/208/3 153/78/3
f 156/211/10 151/212/10 149/66/10 155/65/10
f 156/51/11 154/213/11 152/70/11 151/69/11
f 149/69/12 150/71/12 153/52/12 155/11/12

g Cube-Merged_6
usemtl LogWood
f 131/151/1 133/155/1 132/152/1
f 133/155/1 112/154/1 132/152/1
f 114/153/1 132/152/1 112/154/1
f 131/151/1 132/152/1 134/156/1
f 134/156/1 116/158/1 118/157/1
f 134/156/1 132/152/1 116/158/1
f 111/161/3 137/163/3 113/162/3
f 137/163/3 111/161/3 136/160/3
f 137/163/3 136/160/3 135/159/3
f 115/164/3 137/163/3 138/166/3
f 117/165/3 115/164/3 138/166/3
f 138/166/3 137/163/3 135/159/3
f 108/169/1 110/168/1 139/170/1
f 139/170/1 133/155/1 131/167/1
f 139/170/1 110/168/1 133/155/1
f 136/160/3 109/173/3 140/171/3
f 135/159/3 136/160/3 140/171/3
f 140/171/3 109/173/3 107/172/3
f 120/176/1 122/175/1 141/174/1
f 141/174/1 134/156/1 120/176/1
f 131/167/1 134/156/1 141/174/1
f 142/179/3 138/166/3 135/159/3
f 119/177/3 138/166/3 142/179/3
f 142/179/3 121/178/3 119/177/3
f 126/181/1 143/180/1 124/182/1
f 124/182/1 143/180/1 141/174/1
f 141/174/1 143/180/1 131/167/1
f 135/183/3 144/187/3 142/184/3
f 142/184/3 144/187/3 123/185/3
f 123/185/3 144/187/3 125/186/3
f 104/189/1 106/188/1 145/190/1
f 145/190/1 139/170/1 131/167/1
f 145/190/1 106/188/1 139/170/1
f 140/194/3 105/193/3 146/191/3
f 135/183/3 140/194/3 146/191/3
f 146/191/3 105/193/3 103/192/3
f 102/195/1 147/125/1 100/196/1
f 102/195/1 145/190/1 147/125/1
f 147/125/1 145/190/1 131/167/1
f 135/183/3 146/191/3 148/115/3
f 148/115/3 146/191/3 101/198/3
f 99/197/3 148/115/3 101/198/3
f 148/115/3 144/187/3 135/183/3
f 129/200/3 144/187/3 148/115/3
f 127/199/3 144/187/3 129/200/3
f 130/201/1 143/180/1 128/202/1
f 147/125/1 143/180/1 130/201/1
f 131/151/1 143/180/1 147/125/1
f 114/153/1 116/158/1 132/152/1
f 137/163/3 115/164/3 113/162/3
f 110/168/1 112/154/1 133/155/1
f 136/160/3 111/161/3 109/173/3
f 118/157/1 120/176/1 134/156/1
f 138/166/3 119/177/3 117/165/3
f 122/175/1 124/182/1 141/174/1
f 142/179/3 123/185/3 121/178/3
f 106/188/1 108/169/1 139/170/1
f 140/171/3 107/172/3 105/193/3
f 102/195/1 104/189/1 145/190/1
f 146/191/3 103/192/3 101/198/3
f 99/197/3 129/200/3 148/115/3
f 147/125/1 130/201/1 100/196/1
f 126/181/1 128/202/1 143/180/1
f 144/187/3 127/199/3 125/186/3
f 102/118/17 100/116/17 99/115/17
f 99/115/17 101/117/17 102/118/17
f 106/122/18 104/120/18 103/119/18
f 103/119/18 105/121/18 106/122/18
f 110/122/19 108/120/19 107/119/19
f 107/119/19 109/121/19 110/122/19
f 114/118/20 112/116/20 111/115/20
f 111/115/20 113/117/20 114/118/20
f 118/126/21 116/124/21 115/123/21
f 115/123/21 117/125/21 118/126/21
f 122/130/22 120/128/22 119/127/22
f 119/127/22 121/129/22 122/130/22
f 126/130/23 124/128/23 123/127/23
f 123/127/23 125/129/23 126/130/23
f 130/126/24 128/124/24 127/123/24
f 127/123/24 129/125/24 130/126/24
f 116/133/5 114/131/5 113/132/5
f 113/132/5 115/134/5 116/133/5
f 112/137/25 110/135/25 109/136/25
f 109/136/25 111/138/25 112/137/25
f 120/141/26 118/139/26 117/140/26
f 117/140/26 119/142/26 120/141/26
f 124/145/2 122/143/2 121/144/2
f 121/144/2 123/146/2 124/145/2
f 108/149/4 106/147/4 105/148/4
f 105/148/4 107/150/4 108/149/4
f 104/137/27 102/135/27 101/136/27
f 101/136/27 103/138/27 104/137/27
f 129/132/6 99/134/6 100/133/6
f 100/133/6 130/131/6 129/132/6
f 128/141/28 126/139/28 125/140/28
f 125/140/28 127/142/28 128/141/28

